<?xml version="1.0" encoding="utf-8"?>
<!DOCTYPE svg PUBLIC "-//W3C//DTD SVG 1.1//EN" "http://www.w3.org/Graphics/SVG/1.1/DTD/svg11.dtd">
<svg version="1.1" id="gaji-labo" xmlns="http://www.w3.org/2000/svg" xmlns:xlink="http://www.w3.org/1999/xlink" x="0px" y="0px" viewBox="0 0 734 136" enable-background="new 0 0 734 136" xml:space="preserve">
<g>
  <path fill="#231815" d="M229.549,87.988c-1.859,2.787-4.003,5.305-6.469,7.556c-2.465,2.251-5.154,4.163-8.084,5.734c-2.931,1.573-6.016,2.787-9.267,3.644c-3.253,0.857-6.589,1.286-10.019,1.286c-11.146,0-20.721-3.929-28.722-11.789c-7.861-8.073-11.789-17.647-11.789-28.723c0-11.075,3.966-20.578,11.897-28.509c8.001-8.001,17.54-12.004,28.616-12.004c6.501,0,12.647,1.518,18.434,4.555c5.788,3.038,10.718,7.342,14.79,12.915l-9.539,6.645c-3.001-3.929-6.575-6.983-10.718-9.164c-4.145-2.178-8.467-3.269-12.968-3.269c-8.002,0-14.827,2.787-20.471,8.36c-5.646,5.788-8.467,12.612-8.467,20.471c0,7.861,2.821,14.683,8.467,20.471c5.786,5.645,12.867,8.467,20.727,8.467c9.287,0,16.657-3.5,22.657-10.503V72h-24V61h35v26.345L229.549,87.988z"/>
  <path fill="#231815" d="M284.626,104.386v-8.038c-5,6.575-12.904,9.86-21.548,9.86c-8.432,0-15.544-3.143-21.117-9.431c-5.503-6.002-8.308-13.217-8.308-21.65c0-8.503,2.759-15.755,8.332-21.757c2.715-3.216,5.827-5.591,9.364-7.127c3.537-1.535,7.59-2.304,11.735-2.304c8.502,0,15.541,3.287,21.541,9.86V47h12v58h-12.441L284.626,104.386z M278.505,61.301c-3.788-3.787-8.397-5.68-13.826-5.68c-5.431,0-10.04,1.893-13.826,5.68c-3.788,3.788-5.68,8.397-5.68,13.826c0,5.431,1.892,10.04,5.68,13.826c3.786,3.788,8.394,5.68,13.826,5.68c5.429,0,10.038-1.892,13.826-5.68c3.787-3.786,5.68-8.394,5.68-13.826C284.186,69.698,282.291,65.09,278.505,61.301z"/>
  <path fill="#231815" d="M313.325,120.463c-3.001,3.001-6.475,4.501-10.618,4.501c-2.858,0-5.701-0.894-8.632-2.679l5.491-10.503c1.429,1.071,2.513,1.608,3.228,1.608c1,0,1.951-0.358,2.666-1.072c0.713-0.715,1.166-1.572,1.166-2.572V47h11v62.744C317.626,113.888,316.326,117.462,313.325,120.463z M317.704,38.366c-1.5,1.5-3.322,2.251-5.465,2.251c-2.144,0-3.966-0.75-5.466-2.251s-2.251-3.322-2.251-5.466s0.75-3.966,2.251-5.466s3.322-2.251,5.466-2.251c2.144,0,3.964,0.75,5.465,2.251c1.5,1.5,2.251,3.322,2.251,5.466C319.956,35.043,319.204,36.865,317.704,38.366z"/>
  <path fill="#231815" d="M339.861,38.366c-1.5,1.5-3.322,2.251-5.466,2.251s-3.966-0.75-5.466-2.251s-2.251-3.322-2.251-5.466s0.75-3.966,2.251-5.466s3.322-2.251,5.466-2.251c2.144,0,3.966,0.75,5.466,2.251s2.251,3.322,2.251,5.466C342.113,35.043,341.362,36.865,339.861,38.366z M328.626,105V47h12v58H328.626z"/>
  <path fill="#231815" d="M351.626,80v-9h39v9H351.626z"/>
  <path fill="#231815" d="M401.626,107V29h12v65h33v13H401.626z"/>
  <path fill="#231815" d="M495.626,106.061v-8.038c-6,6.575-12.931,9.86-21.576,9.86c-8.43,0-15.557-3.143-21.13-9.431c-5.503-6.002-8.315-13.217-8.315-21.65c0-8.503,2.756-15.755,8.329-21.757c2.715-3.216,5.826-5.591,9.361-7.127c3.537-1.535,7.618-2.304,11.762-2.304c8.503,0,15.569,3.287,21.569,9.86V48h11v59H495.13L495.626,106.061z M489.451,62.976c-3.789-3.787-8.398-5.68-13.827-5.68c-5.429,0-10.038,1.893-13.826,5.68c-3.788,3.788-5.679,8.397-5.679,13.826c0,5.431,1.892,10.04,5.679,13.826c3.788,3.788,8.397,5.68,13.826,5.68c5.429,0,10.038-1.892,13.827-5.68c3.786-3.786,5.679-8.394,5.679-13.826C495.13,71.373,493.237,66.764,489.451,62.976z"/>
  <path fill="#231815" d="M569.738,98.451c-5.646,6.288-12.647,9.432-21.007,9.432c-4.432,0-8.231-0.823-11.733-2.465c-3.501-1.643-7.373-4.107-9.373-7.395V107h-12V29h12v26.474c2-3.215,5.872-5.661,9.373-7.342c3.501-1.678,7.383-2.519,11.815-2.519c8.288,0,15.214,3.145,20.857,9.431c5.573,6.146,8.339,13.397,8.339,21.757C578.012,85.091,575.24,92.308,569.738,98.451z M560.627,62.976c-3.788-3.787-8.395-5.68-13.826-5.68c-5.431,0-10.04,1.893-13.826,5.68c-3.788,3.788-5.679,8.397-5.679,13.826c0,5.431,1.892,10.04,5.679,13.826c3.786,3.788,8.394,5.68,13.826,5.68c5.429,0,10.038-1.892,13.826-5.68c3.788-3.786,5.681-8.394,5.681-13.826C566.309,71.373,564.415,66.764,560.627,62.976z"/>
  <path fill="#231815" d="M635.235,98.666c-6.146,6.146-13.469,9.217-21.971,9.217s-15.792-3.071-21.864-9.217c-6.146-6.072-9.217-13.36-9.217-21.864c0-8.503,3.071-15.825,9.217-21.971c6.072-6.145,13.361-9.217,21.864-9.217c8.503,0,15.825,3.072,21.971,9.217c6.145,6.147,9.217,13.468,9.217,21.971C644.453,85.306,641.38,92.594,635.235,98.666z M627.091,62.976c-3.789-3.787-8.398-5.68-13.827-5.68c-5.429,0-10.038,1.893-13.826,5.68c-3.788,3.788-5.679,8.397-5.679,13.826c0,5.431,1.892,10.04,5.679,13.826c3.788,3.788,8.397,5.68,13.826,5.68c5.429,0,10.038-1.892,13.827-5.68c3.786-3.786,5.679-8.394,5.679-13.826C632.771,71.373,630.877,66.764,627.091,62.976z"/>
</g>
<g>
  <path fill="#231815" d="M670.626,49v16h-8V49h-17v-8h17V24h8v17h17v8H670.626z"/>
  <path fill="#231815" d="M716.626,49v16h-8V49h-16v-8h16V24h8v17h17v8H716.626z"/>
</g>
<g>
  <path fill="#221714" d="M67.625,0C30.07,0-0.374,30.443-0.374,68c0,37.556,30.443,68,67.999,68c37.559,0,68.001-30.444,68.001-68C135.626,30.443,105.183,0,67.625,0z M111.134,108H97.626V73h-50v35h-14V73h-21V59h21V23h14v36h7V23h15v36h7V23h14v36h21v49H111.134z"/>
</g>
</svg>
